<svg width="221" height="111" viewBox="0 0 221 111" fill="none" xmlns="http://www.w3.org/2000/svg">
<rect x="25.5" y="12.5" width="169" height="85" rx="26.5" fill="url(#paint0_linear_483_8)" stroke="white" stroke-width="7"/>
<g filter="url(#filter0_ddi_483_8)">
<mask id="path-2-outside-1_483_8" maskUnits="userSpaceOnUse" x="63" y="34" width="92" height="43" fill="black">
<rect fill="white" x="63" y="34" width="92" height="43"/>
<path d="M105.499 70H98.2143L96.5346 57.6367C96.4174 56.7643 96.3067 55.7943 96.2026 54.7266C96.1114 53.6589 96.0268 52.4935 95.9487 51.2305C95.7664 52.4414 95.4083 53.9518 94.8745 55.7617C94.7573 56.1393 94.6726 56.4193 94.6206 56.6016L90.7338 70H85.5385L81.6518 56.6016C81.5997 56.4193 81.5216 56.1393 81.4174 55.7617C80.8706 53.9518 80.5125 52.4479 80.3432 51.25C80.2651 52.3307 80.1739 53.4049 80.0698 54.4727C79.9656 55.5273 79.8419 56.582 79.6987 57.6367L78.019 70H70.7729L75.187 41.4062H82.9018L87.2182 56.1523C87.2442 56.2565 87.2963 56.4258 87.3745 56.6602C87.7781 57.9753 88.032 59.1016 88.1362 60.0391C88.1883 59.5312 88.2859 58.9714 88.4291 58.3594C88.5724 57.7344 88.7677 56.9857 89.0151 56.1133L93.3706 41.4062H101.105L105.499 70ZM109.054 44.1211C109.054 43.0664 109.425 42.168 110.167 41.4258C110.923 40.6836 111.828 40.3125 112.882 40.3125C113.976 40.3125 114.887 40.6771 115.617 41.4062C116.359 42.1354 116.73 43.0404 116.73 44.1211C116.73 45.2018 116.352 46.1198 115.597 46.875C114.855 47.6302 113.95 48.0078 112.882 48.0078C111.841 48.0078 110.942 47.6237 110.187 46.8555C109.432 46.0872 109.054 45.1758 109.054 44.1211ZM109.406 70V50.2734H116.378V70H109.406ZM119.874 68.3594L121.32 63.0469C122.335 63.9323 123.449 64.6159 124.66 65.0977C125.884 65.5664 127.114 65.8008 128.351 65.8008C129.223 65.8008 129.887 65.6641 130.343 65.3906C130.799 65.1042 131.027 64.694 131.027 64.1602C131.027 63.2878 130.109 62.6367 128.273 62.207C127.674 62.0638 127.192 61.9401 126.828 61.8359C124.744 61.263 123.227 60.5143 122.277 59.5898C121.339 58.6523 120.871 57.4414 120.871 55.957C120.871 54.043 121.587 52.513 123.019 51.3672C124.464 50.2214 126.417 49.6484 128.878 49.6484C130.141 49.6484 131.424 49.7982 132.726 50.0977C134.041 50.3841 135.382 50.8333 136.749 51.4453L135.304 56.2305C134.38 55.6055 133.442 55.1302 132.492 54.8047C131.541 54.4792 130.591 54.3164 129.64 54.3164C128.846 54.3164 128.247 54.4401 127.843 54.6875C127.44 54.9349 127.238 55.293 127.238 55.7617C127.238 56.4648 128.149 57.0573 129.972 57.5391C130.389 57.6562 130.701 57.7409 130.91 57.793C133.318 58.4831 134.992 59.2969 135.929 60.2344C136.88 61.1589 137.355 62.4154 137.355 64.0039C137.355 66.0221 136.58 67.6562 135.031 68.9062C133.481 70.1432 131.43 70.7617 128.878 70.7617C127.147 70.7617 125.539 70.5599 124.054 70.1562C122.57 69.7656 121.177 69.1667 119.874 68.3594ZM140.929 44.1211C140.929 43.0664 141.3 42.168 142.042 41.4258C142.798 40.6836 143.703 40.3125 144.757 40.3125C145.851 40.3125 146.762 40.6771 147.492 41.4062C148.234 42.1354 148.605 43.0404 148.605 44.1211C148.605 45.2018 148.227 46.1198 147.472 46.875C146.73 47.6302 145.825 48.0078 144.757 48.0078C143.716 48.0078 142.817 47.6237 142.062 46.8555C141.307 46.0872 140.929 45.1758 140.929 44.1211ZM141.281 70V50.2734H148.253V70H141.281Z"/>
</mask>
<path d="M105.499 70H98.2143L96.5346 57.6367C96.4174 56.7643 96.3067 55.7943 96.2026 54.7266C96.1114 53.6589 96.0268 52.4935 95.9487 51.2305C95.7664 52.4414 95.4083 53.9518 94.8745 55.7617C94.7573 56.1393 94.6726 56.4193 94.6206 56.6016L90.7338 70H85.5385L81.6518 56.6016C81.5997 56.4193 81.5216 56.1393 81.4174 55.7617C80.8706 53.9518 80.5125 52.4479 80.3432 51.25C80.2651 52.3307 80.1739 53.4049 80.0698 54.4727C79.9656 55.5273 79.8419 56.582 79.6987 57.6367L78.019 70H70.7729L75.187 41.4062H82.9018L87.2182 56.1523C87.2442 56.2565 87.2963 56.4258 87.3745 56.6602C87.7781 57.9753 88.032 59.1016 88.1362 60.0391C88.1883 59.5312 88.2859 58.9714 88.4291 58.3594C88.5724 57.7344 88.7677 56.9857 89.0151 56.1133L93.3706 41.4062H101.105L105.499 70ZM109.054 44.1211C109.054 43.0664 109.425 42.168 110.167 41.4258C110.923 40.6836 111.828 40.3125 112.882 40.3125C113.976 40.3125 114.887 40.6771 115.617 41.4062C116.359 42.1354 116.73 43.0404 116.73 44.1211C116.73 45.2018 116.352 46.1198 115.597 46.875C114.855 47.6302 113.95 48.0078 112.882 48.0078C111.841 48.0078 110.942 47.6237 110.187 46.8555C109.432 46.0872 109.054 45.1758 109.054 44.1211ZM109.406 70V50.2734H116.378V70H109.406ZM119.874 68.3594L121.32 63.0469C122.335 63.9323 123.449 64.6159 124.66 65.0977C125.884 65.5664 127.114 65.8008 128.351 65.8008C129.223 65.8008 129.887 65.6641 130.343 65.3906C130.799 65.1042 131.027 64.694 131.027 64.1602C131.027 63.2878 130.109 62.6367 128.273 62.207C127.674 62.0638 127.192 61.9401 126.828 61.8359C124.744 61.263 123.227 60.5143 122.277 59.5898C121.339 58.6523 120.871 57.4414 120.871 55.957C120.871 54.043 121.587 52.513 123.019 51.3672C124.464 50.2214 126.417 49.6484 128.878 49.6484C130.141 49.6484 131.424 49.7982 132.726 50.0977C134.041 50.3841 135.382 50.8333 136.749 51.4453L135.304 56.2305C134.38 55.6055 133.442 55.1302 132.492 54.8047C131.541 54.4792 130.591 54.3164 129.64 54.3164C128.846 54.3164 128.247 54.4401 127.843 54.6875C127.44 54.9349 127.238 55.293 127.238 55.7617C127.238 56.4648 128.149 57.0573 129.972 57.5391C130.389 57.6562 130.701 57.7409 130.91 57.793C133.318 58.4831 134.992 59.2969 135.929 60.2344C136.88 61.1589 137.355 62.4154 137.355 64.0039C137.355 66.0221 136.58 67.6562 135.031 68.9062C133.481 70.1432 131.43 70.7617 128.878 70.7617C127.147 70.7617 125.539 70.5599 124.054 70.1562C122.57 69.7656 121.177 69.1667 119.874 68.3594ZM140.929 44.1211C140.929 43.0664 141.3 42.168 142.042 41.4258C142.798 40.6836 143.703 40.3125 144.757 40.3125C145.851 40.3125 146.762 40.6771 147.492 41.4062C148.234 42.1354 148.605 43.0404 148.605 44.1211C148.605 45.2018 148.227 46.1198 147.472 46.875C146.73 47.6302 145.825 48.0078 144.757 48.0078C143.716 48.0078 142.817 47.6237 142.062 46.8555C141.307 46.0872 140.929 45.1758 140.929 44.1211ZM141.281 70V50.2734H148.253V70H141.281Z" fill="url(#paint1_linear_483_8)"/>
<path d="M105.499 70V76H112.492L111.43 69.0886L105.499 70ZM98.2143 70L92.2689 70.8077L92.9743 76H98.2143V70ZM96.5346 57.6367L90.588 58.4355L90.5892 58.4445L96.5346 57.6367ZM96.2026 54.7266L90.2243 55.2369L90.2274 55.2731L90.2309 55.3092L96.2026 54.7266ZM95.9487 51.2305L101.937 50.86L90.0155 50.3373L95.9487 51.2305ZM94.8745 55.7617L100.605 57.5401L100.617 57.4997L100.629 57.4592L94.8745 55.7617ZM94.6206 56.6016L100.383 58.2732L100.386 58.2615L100.39 58.2499L94.6206 56.6016ZM90.7338 70V76H95.2407L96.4963 71.6716L90.7338 70ZM85.5385 70L79.7761 71.6716L81.0317 76H85.5385V70ZM81.6518 56.6016L75.8827 58.2499L75.886 58.2615L75.8894 58.2732L81.6518 56.6016ZM81.4174 55.7617L87.2014 54.1661L87.182 54.096L87.161 54.0263L81.4174 55.7617ZM80.3432 51.25L86.2842 50.4105L74.3588 50.8174L80.3432 51.25ZM80.0698 54.4727L86.0407 55.0624L86.0414 55.0553L80.0698 54.4727ZM79.6987 57.6367L85.6441 58.4445L85.6441 58.4441L79.6987 57.6367ZM78.019 70V76H83.2589L83.9644 70.8077L78.019 70ZM70.7729 70L64.8431 69.0846L63.7756 76H70.7729V70ZM75.187 41.4062V35.4062H70.0421L69.2572 40.4909L75.187 41.4062ZM82.9018 41.4062L88.6602 39.7207L87.3973 35.4062H82.9018V41.4062ZM87.2182 56.1523L93.0391 54.6971L93.0101 54.5813L92.9766 54.4668L87.2182 56.1523ZM87.3745 56.6602L93.1104 54.8996L93.0893 54.8309L93.0666 54.7628L87.3745 56.6602ZM88.1362 60.0391L82.1729 60.7017L94.1049 60.6512L88.1362 60.0391ZM88.4291 58.3594L94.2713 59.7267L94.2744 59.7132L94.2775 59.6996L88.4291 58.3594ZM89.0151 56.1133L83.2621 54.4095L83.2522 54.4429L83.2427 54.4763L89.0151 56.1133ZM93.3706 41.4062V35.4062H88.8899L87.6175 39.7025L93.3706 41.4062ZM101.105 41.4062L107.035 40.4948L106.253 35.4062H101.105V41.4062ZM105.499 64H98.2143V76H105.499V64ZM104.16 69.1923L102.48 56.829L90.5892 58.4445L92.2689 70.8077L104.16 69.1923ZM102.481 56.8379C102.375 56.0509 102.273 55.1544 102.174 54.144L90.2309 55.3092C90.3407 56.4341 90.4594 57.4777 90.588 58.4355L102.481 56.8379ZM102.181 54.2162C102.094 53.2025 102.013 52.0845 101.937 50.86L89.9601 51.6009C90.0406 52.9025 90.1286 54.1152 90.2243 55.2369L102.181 54.2162ZM90.0155 50.3373C89.8898 51.1726 89.6124 52.3934 89.1196 54.0642L100.629 57.4592C101.204 55.5103 101.643 53.7102 101.882 52.1236L90.0155 50.3373ZM89.1441 53.9833C89.0246 54.3684 88.9231 54.7022 88.8514 54.9532L100.39 58.2499C100.422 58.1363 100.49 57.9103 100.605 57.5401L89.1441 53.9833ZM88.8581 54.93L84.9714 68.3284L96.4963 71.6716L100.383 58.2732L88.8581 54.93ZM90.7338 64H85.5385V76H90.7338V64ZM91.301 68.3284L87.4142 54.93L75.8894 58.2732L79.7761 71.6716L91.301 68.3284ZM87.4209 54.9532C87.3768 54.7986 87.3047 54.5405 87.2014 54.1661L75.6335 57.3573C75.7385 57.7381 75.8227 58.0399 75.8827 58.2499L87.4209 54.9532ZM87.161 54.0263C86.6593 52.366 86.3938 51.1861 86.2842 50.4105L74.4022 52.0895C74.6312 53.7097 75.0818 55.5376 75.6739 57.4972L87.161 54.0263ZM74.3588 50.8174C74.2843 51.8486 74.1974 52.8728 74.0981 53.8901L86.0414 55.0553C86.1505 53.9371 86.2459 52.8129 86.3276 51.6826L74.3588 50.8174ZM74.0988 53.8829C74.0019 54.8646 73.8867 55.8467 73.7533 56.8293L85.6441 58.4441C85.7971 57.3173 85.9293 56.1901 86.0407 55.0624L74.0988 53.8829ZM73.7533 56.829L72.0736 69.1923L83.9644 70.8077L85.6441 58.4445L73.7533 56.829ZM78.019 64H70.7729V76H78.019V64ZM76.7027 70.9154L81.1167 42.3216L69.2572 40.4909L64.8431 69.0846L76.7027 70.9154ZM75.187 47.4062H82.9018V35.4062H75.187V47.4062ZM77.1434 43.0918L81.4598 57.8379L92.9766 54.4668L88.6602 39.7207L77.1434 43.0918ZM81.3974 57.6076C81.4842 57.9551 81.6015 58.3151 81.6824 58.5575L93.0666 54.7628C93.0522 54.7197 93.0404 54.6838 93.031 54.6546C93.0215 54.625 93.0152 54.6049 93.0115 54.5929C93.0076 54.5803 93.0081 54.5817 93.0118 54.5943C93.0137 54.6011 93.017 54.6129 93.0214 54.629C93.0257 54.6449 93.0318 54.668 93.0391 54.6971L81.3974 57.6076ZM81.6386 58.4207C81.9774 59.5246 82.1241 60.2631 82.1729 60.7017L94.0995 59.3765C93.9399 57.94 93.5788 56.4259 93.1104 54.8996L81.6386 58.4207ZM94.1049 60.6512C94.1257 60.4477 94.1735 60.1443 94.2713 59.7267L82.587 56.9921C82.3983 57.7984 82.2508 58.6148 82.1675 59.4269L94.1049 60.6512ZM94.2775 59.6996C94.3908 59.2054 94.5575 58.561 94.7875 57.7502L83.2427 54.4763C82.9778 55.4103 82.7539 56.2634 82.5807 57.0191L94.2775 59.6996ZM94.7681 57.817L99.1236 43.11L87.6175 39.7025L83.2621 54.4095L94.7681 57.817ZM93.3706 47.4062H101.105V35.4062H93.3706V47.4062ZM95.1746 42.3177L99.5691 70.9114L111.43 69.0886L107.035 40.4948L95.1746 42.3177ZM110.167 41.4258L105.962 37.1464L105.943 37.1647L105.925 37.1831L110.167 41.4258ZM115.617 41.4062L111.374 45.6489L111.393 45.6677L111.412 45.6863L115.617 41.4062ZM115.597 46.875L111.354 42.6324L111.336 42.6508L111.318 42.6694L115.597 46.875ZM109.406 70H103.406V76H109.406V70ZM109.406 50.2734V44.2734H103.406V50.2734H109.406ZM116.378 50.2734H122.378V44.2734H116.378V50.2734ZM116.378 70V76H122.378V70H116.378ZM115.054 44.1211C115.054 44.3124 115.017 44.6099 114.878 44.9468C114.739 45.2843 114.553 45.5259 114.41 45.6684L105.925 37.1831C104.051 39.0567 103.054 41.4838 103.054 44.1211H115.054ZM114.373 45.7052C114.242 45.8337 114.013 46.0091 113.689 46.1422C113.364 46.2754 113.074 46.3125 112.882 46.3125V34.3125C110.247 34.3125 107.834 35.3064 105.962 37.1464L114.373 45.7052ZM112.882 46.3125C112.753 46.3125 112.487 46.2886 112.158 46.1568C111.821 46.0222 111.554 45.8294 111.374 45.6489L119.859 37.1636C117.931 35.2357 115.46 34.3125 112.882 34.3125V46.3125ZM111.412 45.6863C111.24 45.518 111.042 45.2552 110.9 44.9083C110.76 44.5661 110.73 44.2794 110.73 44.1211H122.73C122.73 41.5004 121.761 39.0315 119.822 37.1262L111.412 45.6863ZM110.73 44.1211C110.73 43.9484 110.763 43.6647 110.898 43.3376C111.033 43.009 111.214 42.7724 111.354 42.6324L119.84 51.1176C121.735 49.2223 122.73 46.7719 122.73 44.1211H110.73ZM111.318 42.6694C111.462 42.5223 111.708 42.3306 112.051 42.1873C112.394 42.0445 112.694 42.0078 112.882 42.0078V54.0078C115.544 54.0078 117.996 52.9944 119.876 51.0806L111.318 42.6694ZM112.882 42.0078C113.118 42.0078 113.441 42.0554 113.786 42.2028C114.126 42.3484 114.351 42.5328 114.466 42.6492L105.908 51.0617C107.748 52.9335 110.171 54.0078 112.882 54.0078V42.0078ZM114.466 42.6492C114.578 42.7639 114.748 42.9802 114.88 43.2993C115.014 43.6208 115.054 43.9154 115.054 44.1211H103.054C103.054 46.7866 104.076 49.1982 105.908 51.0617L114.466 42.6492ZM115.406 70V50.2734H103.406V70H115.406ZM109.406 56.2734H116.378V44.2734H109.406V56.2734ZM110.378 50.2734V70H122.378V50.2734H110.378ZM116.378 64H109.406V76H116.378V64ZM119.874 68.3594L114.085 66.7843L112.91 71.1013L116.713 73.4588L119.874 68.3594ZM121.32 63.0469L125.263 58.5242L118.044 52.2313L115.53 61.4718L121.32 63.0469ZM124.66 65.0977L122.442 70.6726L122.478 70.687L122.514 70.7008L124.66 65.0977ZM130.343 65.3906L133.43 70.5356L133.484 70.5036L133.536 70.4704L130.343 65.3906ZM128.273 62.207L126.877 68.0425L126.892 68.0459L126.906 68.0492L128.273 62.207ZM126.828 61.8359L128.476 56.0668L128.447 56.0586L128.419 56.0507L126.828 61.8359ZM122.277 59.5898L118.034 63.8325L118.064 63.8619L118.093 63.891L122.277 59.5898ZM123.019 51.3672L119.292 46.6655L119.281 46.6737L119.271 46.682L123.019 51.3672ZM132.726 50.0977L131.381 55.945L131.415 55.9528L131.449 55.9602L132.726 50.0977ZM136.749 51.4453L142.493 53.1801L144.02 48.126L139.201 45.9689L136.749 51.4453ZM135.304 56.2305L131.944 61.2011L138.692 65.7637L141.048 57.9653L135.304 56.2305ZM129.972 57.5391L131.597 51.7632L131.551 51.7503L131.505 51.7382L129.972 57.5391ZM130.91 57.793L132.562 52.025L132.464 51.9969L132.365 51.9721L130.91 57.793ZM135.929 60.2344L131.687 64.477L131.716 64.5065L131.746 64.5355L135.929 60.2344ZM135.031 68.9062L138.774 73.5953L138.786 73.5857L138.798 73.5761L135.031 68.9062ZM124.054 70.1562L125.629 64.3665L125.605 64.3601L125.581 64.3538L124.054 70.1562ZM125.664 69.9345L127.109 64.622L115.53 61.4718L114.085 66.7843L125.664 69.9345ZM117.377 67.5695C118.886 68.8854 120.579 69.9316 122.442 70.6726L126.878 59.5227C126.318 59.3001 125.784 58.9792 125.263 58.5242L117.377 67.5695ZM122.514 70.7008C124.381 71.4161 126.338 71.8008 128.351 71.8008V59.8008C127.89 59.8008 127.386 59.7167 126.805 59.4945L122.514 70.7008ZM128.351 71.8008C129.686 71.8008 131.622 71.6204 133.43 70.5356L127.256 60.2457C127.743 59.9535 128.137 59.8537 128.293 59.8215C128.454 59.7885 128.49 59.8008 128.351 59.8008V71.8008ZM133.536 70.4704C135.721 69.0971 137.027 66.7781 137.027 64.1602H125.027C125.027 63.5499 125.165 62.7573 125.611 61.9543C126.056 61.1534 126.65 60.6253 127.15 60.3108L133.536 70.4704ZM137.027 64.1602C137.027 61.2283 135.345 59.2124 133.809 58.1235C132.43 57.1452 130.872 56.6533 129.64 56.3649L126.906 68.0492C127.509 68.1904 127.329 68.2389 126.867 67.9117C126.596 67.7189 126.124 67.3223 125.716 66.644C125.279 65.9188 125.027 65.0554 125.027 64.1602H137.027ZM129.668 56.3716C129.109 56.2378 128.722 56.137 128.476 56.0668L125.179 67.6051C125.663 67.7432 126.239 67.8898 126.877 68.0425L129.668 56.3716ZM128.419 56.0507C127.648 55.8389 127.122 55.6315 126.783 55.4644C126.44 55.295 126.381 55.2121 126.46 55.2887L118.093 63.891C120.089 65.8322 122.726 66.9306 125.237 67.6212L128.419 56.0507ZM126.519 55.3472C126.628 55.4562 126.744 55.6225 126.818 55.8125C126.886 55.9894 126.871 56.0634 126.871 55.957H114.871C114.871 58.8247 115.832 61.6307 118.034 63.8325L126.519 55.3472ZM126.871 55.957C126.871 55.8532 126.88 55.8102 126.879 55.815C126.878 55.822 126.868 55.861 126.842 55.9177C126.815 55.9749 126.784 56.0227 126.758 56.0551C126.733 56.086 126.729 56.0831 126.767 56.0524L119.271 46.682C116.345 49.0226 114.871 52.3121 114.871 55.957H126.871ZM126.746 56.0689C126.824 56.0072 127.319 55.6484 128.878 55.6484V43.6484C125.516 43.6484 122.104 44.4355 119.292 46.6655L126.746 56.0689ZM128.878 55.6484C129.663 55.6484 130.495 55.7411 131.381 55.945L134.071 44.2503C132.353 43.8552 130.619 43.6484 128.878 43.6484V55.6484ZM131.449 55.9602C132.318 56.1495 133.266 56.4599 134.298 56.9217L139.201 45.9689C137.498 45.2068 135.764 44.6187 134.003 44.2351L131.449 55.9602ZM131.006 49.7105L129.56 54.4956L141.048 57.9653L142.493 53.1801L131.006 49.7105ZM138.665 51.2598C137.349 50.3704 135.939 49.6433 134.436 49.1283L130.548 60.481C130.945 60.6171 131.41 60.8405 131.944 61.2011L138.665 51.2598ZM134.436 49.1283C132.895 48.6008 131.289 48.3164 129.64 48.3164V60.3164C129.892 60.3164 130.187 60.3575 130.548 60.481L134.436 49.1283ZM129.64 48.3164C128.406 48.3164 126.496 48.476 124.708 49.5719L130.979 59.8031C130.444 60.1306 130.001 60.2455 129.809 60.2852C129.611 60.326 129.537 60.3164 129.64 60.3164V48.3164ZM124.708 49.5719C122.546 50.8967 121.238 53.1801 121.238 55.7617H133.238C133.238 56.4125 133.09 57.2476 132.616 58.0877C132.144 58.9251 131.514 59.4752 130.979 59.8031L124.708 49.5719ZM121.238 55.7617C121.238 59.084 123.47 60.9958 124.651 61.7641C125.895 62.5721 127.294 63.0372 128.439 63.3399L131.505 51.7382C130.828 51.5592 130.86 51.4871 131.191 51.7027C131.462 51.8785 133.238 53.1426 133.238 55.7617H121.238ZM128.348 63.315C128.776 63.4355 129.158 63.5396 129.454 63.6138L132.365 51.9721C132.245 51.9421 132.001 51.877 131.597 51.7632L128.348 63.315ZM129.257 63.5609C130.234 63.8408 130.909 64.1035 131.347 64.3165C131.806 64.54 131.837 64.6279 131.687 64.477L140.172 55.9917C138.122 53.9415 135.222 52.787 132.562 52.025L129.257 63.5609ZM131.746 64.5355C131.673 64.4646 131.598 64.3761 131.531 64.2731C131.464 64.1703 131.417 64.073 131.387 63.9928C131.325 63.8314 131.355 63.8053 131.355 64.0039H143.355C143.355 61.1403 142.451 58.2072 140.112 55.9332L131.746 64.5355ZM131.355 64.0039C131.355 64.1236 131.344 64.1849 131.34 64.2005C131.337 64.2141 131.339 64.2005 131.352 64.1728C131.366 64.1449 131.377 64.1298 131.376 64.1319C131.373 64.1355 131.343 64.1725 131.263 64.2364L138.798 73.5761C141.782 71.1689 143.355 67.8072 143.355 64.0039H131.355ZM131.287 64.2172C131.074 64.3877 130.466 64.7617 128.878 64.7617V76.7617C132.395 76.7617 135.889 75.8987 138.774 73.5953L131.287 64.2172ZM128.878 64.7617C127.613 64.7617 126.54 64.6144 125.629 64.3665L122.48 75.946C124.537 76.5054 126.68 76.7617 128.878 76.7617V64.7617ZM125.581 64.3538C124.672 64.1147 123.83 63.7524 123.036 63.26L116.713 73.4588C118.523 74.581 120.467 75.4166 122.527 75.9587L125.581 64.3538ZM142.042 41.4258L137.837 37.1464L137.818 37.1647L137.8 37.1831L142.042 41.4258ZM147.492 41.4062L143.249 45.6489L143.268 45.6677L143.287 45.6863L147.492 41.4062ZM147.472 46.875L143.229 42.6324L143.211 42.6508L143.193 42.6694L147.472 46.875ZM141.281 70H135.281V76H141.281V70ZM141.281 50.2734V44.2734H135.281V50.2734H141.281ZM148.253 50.2734H154.253V44.2734H148.253V50.2734ZM148.253 70V76H154.253V70H148.253ZM146.929 44.1211C146.929 44.3124 146.892 44.6099 146.753 44.9468C146.614 45.2843 146.428 45.5259 146.285 45.6684L137.8 37.1831C135.926 39.0567 134.929 41.4838 134.929 44.1211H146.929ZM146.248 45.7052C146.117 45.8337 145.888 46.0091 145.564 46.1422C145.239 46.2754 144.949 46.3125 144.757 46.3125V34.3125C142.122 34.3125 139.709 35.3064 137.837 37.1464L146.248 45.7052ZM144.757 46.3125C144.628 46.3125 144.362 46.2886 144.033 46.1568C143.696 46.0222 143.429 45.8294 143.249 45.6489L151.734 37.1636C149.806 35.2357 147.335 34.3125 144.757 34.3125V46.3125ZM143.287 45.6863C143.115 45.518 142.917 45.2552 142.775 44.9083C142.635 44.5661 142.605 44.2794 142.605 44.1211H154.605C154.605 41.5004 153.636 39.0315 151.697 37.1262L143.287 45.6863ZM142.605 44.1211C142.605 43.9484 142.638 43.6647 142.773 43.3376C142.908 43.009 143.089 42.7724 143.229 42.6324L151.715 51.1176C153.61 49.2223 154.605 46.7719 154.605 44.1211H142.605ZM143.193 42.6694C143.337 42.5223 143.583 42.3306 143.926 42.1873C144.269 42.0445 144.569 42.0078 144.757 42.0078V54.0078C147.419 54.0078 149.871 52.9944 151.751 51.0806L143.193 42.6694ZM144.757 42.0078C144.993 42.0078 145.316 42.0554 145.661 42.2028C146.001 42.3484 146.226 42.5328 146.341 42.6492L137.783 51.0617C139.623 52.9335 142.046 54.0078 144.757 54.0078V42.0078ZM146.341 42.6492C146.453 42.7639 146.623 42.9802 146.755 43.2993C146.889 43.6208 146.929 43.9154 146.929 44.1211H134.929C134.929 46.7866 135.951 49.1982 137.783 51.0617L146.341 42.6492ZM147.281 70V50.2734H135.281V70H147.281ZM141.281 56.2734H148.253V44.2734H141.281V56.2734ZM142.253 50.2734V70H154.253V50.2734H142.253ZM148.253 64H141.281V76H148.253V64Z" fill="white" mask="url(#path-2-outside-1_483_8)"/>
</g>
<defs>
<filter id="filter0_ddi_483_8" x="30.7725" y="0.3125" width="157.832" height="110.449" filterUnits="userSpaceOnUse" color-interpolation-filters="sRGB">
<feFlood flood-opacity="0" result="BackgroundImageFix"/>
<feColorMatrix in="SourceAlpha" type="matrix" values="0 0 0 0 0 0 0 0 0 0 0 0 0 0 0 0 0 0 127 0" result="hardAlpha"/>
<feOffset dx="-5" dy="5"/>
<feGaussianBlur stdDeviation="5"/>
<feComposite in2="hardAlpha" operator="out"/>
<feColorMatrix type="matrix" values="0 0 0 0 0 0 0 0 0 0 0 0 0 0 0 0 0 0 0.5 0"/>
<feBlend mode="normal" in2="BackgroundImageFix" result="effect1_dropShadow_483_8"/>
<feColorMatrix in="SourceAlpha" type="matrix" values="0 0 0 0 0 0 0 0 0 0 0 0 0 0 0 0 0 0 127 0" result="hardAlpha"/>
<feOffset/>
<feGaussianBlur stdDeviation="20"/>
<feComposite in2="hardAlpha" operator="out"/>
<feColorMatrix type="matrix" values="0 0 0 0 0.977083 0 0 0 0 0.924158 0 0 0 0 0.929164 0 0 0 1 0"/>
<feBlend mode="normal" in2="effect1_dropShadow_483_8" result="effect2_dropShadow_483_8"/>
<feBlend mode="normal" in="SourceGraphic" in2="effect2_dropShadow_483_8" result="shape"/>
<feColorMatrix in="SourceAlpha" type="matrix" values="0 0 0 0 0 0 0 0 0 0 0 0 0 0 0 0 0 0 127 0" result="hardAlpha"/>
<feOffset dx="10" dy="10"/>
<feGaussianBlur stdDeviation="5"/>
<feComposite in2="hardAlpha" operator="arithmetic" k2="-1" k3="1"/>
<feColorMatrix type="matrix" values="0 0 0 0 0 0 0 0 0 0 0 0 0 0 0 0 0 0 0.25 0"/>
<feBlend mode="normal" in2="shape" result="effect3_innerShadow_483_8"/>
</filter>
<linearGradient id="paint0_linear_483_8" x1="110" y1="16" x2="110" y2="94" gradientUnits="userSpaceOnUse">
<stop stop-color="#AB5295"/>
<stop offset="1" stop-color="#DF475A"/>
</linearGradient>
<linearGradient id="paint1_linear_483_8" x1="21.8388" y1="29.25" x2="77.5558" y2="132.209" gradientUnits="userSpaceOnUse">
<stop stop-color="#032D93"/>
<stop offset="1" stop-color="#A958A7"/>
</linearGradient>
</defs>
</svg>
