<svg width="221" height="111" viewBox="0 0 221 111" fill="none" xmlns="http://www.w3.org/2000/svg">
<rect x="25.5" y="12.5" width="169" height="85" rx="26.5" fill="url(#paint0_linear_483_7)" stroke="white" stroke-width="7"/>
<g filter="url(#filter0_ddi_483_7)">
<mask id="path-2-outside-1_483_7" maskUnits="userSpaceOnUse" x="64" y="34" width="87" height="43" fill="black">
<rect fill="white" x="64" y="34" width="87" height="43"/>
<path d="M85.1674 70L73.1752 41.4062H81.4565L87.1791 57.4023C87.2312 57.5716 87.3354 57.9818 87.4916 58.6328C87.6609 59.2708 87.8758 60.1367 88.1362 61.2305C88.3445 60.3581 88.5398 59.5703 88.7221 58.8672C88.9044 58.1641 89.0411 57.6758 89.1323 57.4023L94.8159 41.4062H103.097L91.1049 70H85.1674ZM104.777 44.1211C104.777 43.0664 105.148 42.168 105.89 41.4258C106.645 40.6836 107.55 40.3125 108.605 40.3125C109.699 40.3125 110.61 40.6771 111.339 41.4062C112.081 42.1354 112.453 43.0404 112.453 44.1211C112.453 45.2018 112.075 46.1198 111.32 46.875C110.578 47.6302 109.673 48.0078 108.605 48.0078C107.563 48.0078 106.665 47.6237 105.91 46.8555C105.154 46.0872 104.777 45.1758 104.777 44.1211ZM105.128 70V50.2734H112.101V70H105.128ZM115.597 68.3594L117.042 63.0469C118.058 63.9323 119.171 64.6159 120.382 65.0977C121.606 65.5664 122.837 65.8008 124.074 65.8008C124.946 65.8008 125.61 65.6641 126.066 65.3906C126.522 65.1042 126.749 64.694 126.749 64.1602C126.749 63.2878 125.831 62.6367 123.996 62.207C123.397 62.0638 122.915 61.9401 122.55 61.8359C120.467 61.263 118.95 60.5143 117.999 59.5898C117.062 58.6523 116.593 57.4414 116.593 55.957C116.593 54.043 117.309 52.513 118.742 51.3672C120.187 50.2214 122.14 49.6484 124.601 49.6484C125.864 49.6484 127.147 49.7982 128.449 50.0977C129.764 50.3841 131.105 50.8333 132.472 51.4453L131.027 56.2305C130.102 55.6055 129.165 55.1302 128.214 54.8047C127.264 54.4792 126.313 54.3164 125.363 54.3164C124.568 54.3164 123.97 54.4401 123.566 54.6875C123.162 54.9349 122.96 55.293 122.96 55.7617C122.96 56.4648 123.872 57.0573 125.695 57.5391C126.111 57.6562 126.424 57.7409 126.632 57.793C129.041 58.4831 130.714 59.2969 131.652 60.2344C132.602 61.1589 133.078 62.4154 133.078 64.0039C133.078 66.0221 132.303 67.6562 130.753 68.9062C129.204 70.1432 127.153 70.7617 124.601 70.7617C122.869 70.7617 121.261 70.5599 119.777 70.1562C118.292 69.7656 116.899 69.1667 115.597 68.3594ZM136.652 44.1211C136.652 43.0664 137.023 42.168 137.765 41.4258C138.52 40.6836 139.425 40.3125 140.48 40.3125C141.574 40.3125 142.485 40.6771 143.214 41.4062C143.956 42.1354 144.328 43.0404 144.328 44.1211C144.328 45.2018 143.95 46.1198 143.195 46.875C142.453 47.6302 141.548 48.0078 140.48 48.0078C139.438 48.0078 138.54 47.6237 137.785 46.8555C137.029 46.0872 136.652 45.1758 136.652 44.1211ZM137.003 70V50.2734H143.976V70H137.003Z"/>
</mask>
<path d="M85.1674 70L73.1752 41.4062H81.4565L87.1791 57.4023C87.2312 57.5716 87.3354 57.9818 87.4916 58.6328C87.6609 59.2708 87.8758 60.1367 88.1362 61.2305C88.3445 60.3581 88.5398 59.5703 88.7221 58.8672C88.9044 58.1641 89.0411 57.6758 89.1323 57.4023L94.8159 41.4062H103.097L91.1049 70H85.1674ZM104.777 44.1211C104.777 43.0664 105.148 42.168 105.89 41.4258C106.645 40.6836 107.55 40.3125 108.605 40.3125C109.699 40.3125 110.61 40.6771 111.339 41.4062C112.081 42.1354 112.453 43.0404 112.453 44.1211C112.453 45.2018 112.075 46.1198 111.32 46.875C110.578 47.6302 109.673 48.0078 108.605 48.0078C107.563 48.0078 106.665 47.6237 105.91 46.8555C105.154 46.0872 104.777 45.1758 104.777 44.1211ZM105.128 70V50.2734H112.101V70H105.128ZM115.597 68.3594L117.042 63.0469C118.058 63.9323 119.171 64.6159 120.382 65.0977C121.606 65.5664 122.837 65.8008 124.074 65.8008C124.946 65.8008 125.61 65.6641 126.066 65.3906C126.522 65.1042 126.749 64.694 126.749 64.1602C126.749 63.2878 125.831 62.6367 123.996 62.207C123.397 62.0638 122.915 61.9401 122.55 61.8359C120.467 61.263 118.95 60.5143 117.999 59.5898C117.062 58.6523 116.593 57.4414 116.593 55.957C116.593 54.043 117.309 52.513 118.742 51.3672C120.187 50.2214 122.14 49.6484 124.601 49.6484C125.864 49.6484 127.147 49.7982 128.449 50.0977C129.764 50.3841 131.105 50.8333 132.472 51.4453L131.027 56.2305C130.102 55.6055 129.165 55.1302 128.214 54.8047C127.264 54.4792 126.313 54.3164 125.363 54.3164C124.568 54.3164 123.97 54.4401 123.566 54.6875C123.162 54.9349 122.96 55.293 122.96 55.7617C122.96 56.4648 123.872 57.0573 125.695 57.5391C126.111 57.6562 126.424 57.7409 126.632 57.793C129.041 58.4831 130.714 59.2969 131.652 60.2344C132.602 61.1589 133.078 62.4154 133.078 64.0039C133.078 66.0221 132.303 67.6562 130.753 68.9062C129.204 70.1432 127.153 70.7617 124.601 70.7617C122.869 70.7617 121.261 70.5599 119.777 70.1562C118.292 69.7656 116.899 69.1667 115.597 68.3594ZM136.652 44.1211C136.652 43.0664 137.023 42.168 137.765 41.4258C138.52 40.6836 139.425 40.3125 140.48 40.3125C141.574 40.3125 142.485 40.6771 143.214 41.4062C143.956 42.1354 144.328 43.0404 144.328 44.1211C144.328 45.2018 143.95 46.1198 143.195 46.875C142.453 47.6302 141.548 48.0078 140.48 48.0078C139.438 48.0078 138.54 47.6237 137.785 46.8555C137.029 46.0872 136.652 45.1758 136.652 44.1211ZM137.003 70V50.2734H143.976V70H137.003Z" fill="url(#paint1_linear_483_7)"/>
<path d="M85.1674 70L79.6343 72.3206L81.1775 76H85.1674V70ZM73.1752 41.4062V35.4062H64.1525L67.6422 43.7268L73.1752 41.4062ZM81.4565 41.4062L87.1059 39.3852L85.6824 35.4062H81.4565V41.4062ZM87.1791 57.4023L92.9138 55.6378L92.8741 55.5086L92.8285 55.3813L87.1791 57.4023ZM87.4916 58.6328L81.6573 60.0331L81.674 60.1024L81.6923 60.1714L87.4916 58.6328ZM88.1362 61.2305L82.2993 62.6202L93.9721 62.6241L88.1362 61.2305ZM89.1323 57.4023L83.4785 55.3935L83.4588 55.4491L83.4402 55.505L89.1323 57.4023ZM94.8159 41.4062V35.4062H90.5802L89.1621 39.3974L94.8159 41.4062ZM103.097 41.4062L108.63 43.7268L112.12 35.4062H103.097V41.4062ZM91.1049 70V76H95.0949L96.638 72.3206L91.1049 70ZM90.7005 67.6794L78.7083 39.0857L67.6422 43.7268L79.6343 72.3206L90.7005 67.6794ZM73.1752 47.4062H81.4565V35.4062H73.1752V47.4062ZM75.8071 43.4273L81.5298 59.4234L92.8285 55.3813L87.1059 39.3852L75.8071 43.4273ZM81.4445 59.1669C81.4276 59.1119 81.423 59.0925 81.4349 59.1366C81.4444 59.1719 81.4595 59.2293 81.4809 59.3138C81.524 59.4832 81.5823 59.7203 81.6573 60.0331L93.326 57.2326C93.1845 56.643 93.0335 56.0268 92.9138 55.6378L81.4445 59.1669ZM81.6923 60.1714C81.8425 60.7376 82.0438 61.547 82.2993 62.6202L93.973 59.8407C93.7077 58.7265 93.4793 57.8041 93.291 57.0942L81.6923 60.1714ZM93.9721 62.6241C94.1734 61.7809 94.3594 61.0314 94.5301 60.373L82.9141 57.3614C82.7203 58.1092 82.5156 58.9352 82.3003 59.8368L93.9721 62.6241ZM94.5301 60.373C94.6153 60.0443 94.6846 59.7863 94.7392 59.5914C94.7663 59.4946 94.7876 59.421 94.8037 59.3673C94.8205 59.3111 94.827 59.2918 94.8244 59.2997L83.4402 55.505C83.2768 55.9951 83.0947 56.665 82.9141 57.3614L94.5301 60.373ZM94.786 59.4112L100.47 43.4151L89.1621 39.3974L83.4785 55.3935L94.786 59.4112ZM94.8159 47.4062H103.097V35.4062H94.8159V47.4062ZM97.564 39.0857L85.5718 67.6794L96.638 72.3206L108.63 43.7268L97.564 39.0857ZM91.1049 64H85.1674V76H91.1049V64ZM105.89 41.4258L101.684 37.1464L101.666 37.1647L101.647 37.1831L105.89 41.4258ZM111.339 41.4062L107.097 45.6489L107.115 45.6677L107.134 45.6863L111.339 41.4062ZM111.32 46.875L107.077 42.6324L107.059 42.6508L107.04 42.6694L111.32 46.875ZM105.128 70H99.1284V76H105.128V70ZM105.128 50.2734V44.2734H99.1284V50.2734H105.128ZM112.101 50.2734H118.101V44.2734H112.101V50.2734ZM112.101 70V76H118.101V70H112.101ZM110.777 44.1211C110.777 44.3124 110.74 44.6099 110.601 44.9468C110.461 45.2843 110.275 45.5259 110.133 45.6684L101.647 37.1831C99.7739 39.0567 98.7768 41.4838 98.7768 44.1211H110.777ZM110.096 45.7052C109.965 45.8337 109.736 46.0091 109.412 46.1422C109.087 46.2754 108.797 46.3125 108.605 46.3125V34.3125C105.97 34.3125 103.557 35.3064 101.684 37.1464L110.096 45.7052ZM108.605 46.3125C108.475 46.3125 108.21 46.2886 107.88 46.1568C107.544 46.0222 107.277 45.8294 107.097 45.6489L115.582 37.1636C113.654 35.2357 111.183 34.3125 108.605 34.3125V46.3125ZM107.134 45.6863C106.963 45.518 106.765 45.2552 106.623 44.9083C106.483 44.5661 106.453 44.2794 106.453 44.1211H118.453C118.453 41.5004 117.484 39.0315 115.544 37.1262L107.134 45.6863ZM106.453 44.1211C106.453 43.9484 106.486 43.6647 106.62 43.3376C106.756 43.009 106.937 42.7724 107.077 42.6324L115.562 51.1176C117.458 49.2223 118.453 46.7719 118.453 44.1211H106.453ZM107.04 42.6694C107.185 42.5223 107.431 42.3306 107.774 42.1873C108.116 42.0445 108.417 42.0078 108.605 42.0078V54.0078C111.267 54.0078 113.718 52.9944 115.599 51.0806L107.04 42.6694ZM108.605 42.0078C108.841 42.0078 109.164 42.0554 109.509 42.2028C109.849 42.3484 110.074 42.5328 110.188 42.6492L101.631 51.0617C103.471 52.9335 105.894 54.0078 108.605 54.0078V42.0078ZM110.188 42.6492C110.301 42.7639 110.471 42.9802 110.603 43.2993C110.736 43.6208 110.777 43.9154 110.777 44.1211H98.7768C98.7768 46.7866 99.799 49.1982 101.631 51.0617L110.188 42.6492ZM111.128 70V50.2734H99.1284V70H111.128ZM105.128 56.2734H112.101V44.2734H105.128V56.2734ZM106.101 50.2734V70H118.101V50.2734H106.101ZM112.101 64H105.128V76H112.101V64ZM115.597 68.3594L109.808 66.7843L108.633 71.1013L112.435 73.4588L115.597 68.3594ZM117.042 63.0469L120.985 58.5242L113.767 52.2313L111.253 61.4718L117.042 63.0469ZM120.382 65.0977L118.164 70.6726L118.2 70.687L118.236 70.7008L120.382 65.0977ZM126.066 65.3906L129.153 70.5356L129.206 70.5036L129.259 70.4704L126.066 65.3906ZM123.996 62.207L122.6 68.0425L122.614 68.0459L122.628 68.0492L123.996 62.207ZM122.55 61.8359L124.199 56.0668L124.17 56.0586L124.141 56.0507L122.55 61.8359ZM117.999 59.5898L113.757 63.8325L113.786 63.8619L113.816 63.891L117.999 59.5898ZM118.742 51.3672L115.014 46.6655L115.004 46.6737L114.993 46.682L118.742 51.3672ZM128.449 50.0977L127.104 55.945L127.138 55.9528L127.172 55.9602L128.449 50.0977ZM132.472 51.4453L138.216 53.1801L139.742 48.126L134.923 45.9689L132.472 51.4453ZM131.027 56.2305L127.666 61.2011L134.415 65.7637L136.771 57.9653L131.027 56.2305ZM125.695 57.5391L127.319 51.7632L127.274 51.7503L127.228 51.7382L125.695 57.5391ZM126.632 57.793L128.285 52.025L128.187 51.9969L128.087 51.9721L126.632 57.793ZM131.652 60.2344L127.409 64.477L127.439 64.5065L127.468 64.5355L131.652 60.2344ZM130.753 68.9062L134.497 73.5953L134.509 73.5857L134.521 73.5761L130.753 68.9062ZM119.777 70.1562L121.351 64.3665L121.328 64.3601L121.304 64.3538L119.777 70.1562ZM121.387 69.9345L122.832 64.622L111.253 61.4718L109.808 66.7843L121.387 69.9345ZM113.1 67.5695C114.609 68.8854 116.302 69.9316 118.164 70.6726L122.6 59.5227C122.041 59.3001 121.507 58.9792 120.985 58.5242L113.1 67.5695ZM118.236 70.7008C120.104 71.4161 122.06 71.8008 124.074 71.8008V59.8008C123.613 59.8008 123.108 59.7167 122.528 59.4945L118.236 70.7008ZM124.074 71.8008C125.409 71.8008 127.345 71.6204 129.153 70.5356L122.979 60.2457C123.466 59.9535 123.86 59.8537 124.016 59.8215C124.176 59.7885 124.213 59.8008 124.074 59.8008V71.8008ZM129.259 70.4704C131.444 69.0971 132.749 66.7781 132.749 64.1602H120.749C120.749 63.5499 120.887 62.7573 121.334 61.9543C121.779 61.1534 122.373 60.6253 122.873 60.3108L129.259 70.4704ZM132.749 64.1602C132.749 61.2283 131.067 59.2124 129.532 58.1235C128.153 57.1452 126.595 56.6533 125.363 56.3649L122.628 68.0492C123.232 68.1904 123.051 68.2389 122.59 67.9117C122.318 67.7189 121.847 67.3223 121.438 66.644C121.001 65.9188 120.749 65.0554 120.749 64.1602H132.749ZM125.391 56.3716C124.832 56.2378 124.444 56.137 124.199 56.0668L120.902 67.6051C121.385 67.7432 121.962 67.8898 122.6 68.0425L125.391 56.3716ZM124.141 56.0507C123.371 55.8389 122.844 55.6315 122.506 55.4644C122.162 55.295 122.104 55.2121 122.183 55.2887L113.816 63.891C115.812 65.8322 118.448 66.9306 120.959 67.6212L124.141 56.0507ZM122.242 55.3472C122.351 55.4562 122.467 55.6225 122.54 55.8125C122.609 55.9894 122.593 56.0634 122.593 55.957H110.593C110.593 58.8247 111.555 61.6307 113.757 63.8325L122.242 55.3472ZM122.593 55.957C122.593 55.8532 122.603 55.8102 122.602 55.815C122.6 55.822 122.591 55.861 122.564 55.9177C122.538 55.9749 122.506 56.0227 122.48 56.0551C122.455 56.086 122.451 56.0831 122.49 56.0524L114.993 46.682C112.068 49.0226 110.593 52.3121 110.593 55.957H122.593ZM122.469 56.0689C122.547 56.0072 123.041 55.6484 124.601 55.6484V43.6484C121.239 43.6484 117.827 44.4355 115.014 46.6655L122.469 56.0689ZM124.601 55.6484C125.386 55.6484 126.217 55.7411 127.104 55.945L129.794 44.2503C128.076 43.8552 126.342 43.6484 124.601 43.6484V55.6484ZM127.172 55.9602C128.041 56.1495 128.989 56.4599 130.021 56.9217L134.923 45.9689C133.221 45.2068 131.487 44.6187 129.726 44.2351L127.172 55.9602ZM126.728 49.7105L125.283 54.4956L136.771 57.9653L138.216 53.1801L126.728 49.7105ZM134.387 51.2598C133.072 50.3704 131.662 49.6433 130.158 49.1283L126.27 60.481C126.668 60.6171 127.133 60.8405 127.666 61.2011L134.387 51.2598ZM130.158 49.1283C128.618 48.6008 127.012 48.3164 125.363 48.3164V60.3164C125.615 60.3164 125.91 60.3575 126.27 60.481L130.158 49.1283ZM125.363 48.3164C124.128 48.3164 122.219 48.476 120.43 49.5719L126.701 59.8031C126.167 60.1306 125.723 60.2455 125.531 60.2852C125.334 60.326 125.26 60.3164 125.363 60.3164V48.3164ZM120.43 49.5719C118.269 50.8967 116.96 53.1801 116.96 55.7617H128.96C128.96 56.4125 128.812 57.2476 128.339 58.0877C127.867 58.9251 127.236 59.4752 126.701 59.8031L120.43 49.5719ZM116.96 55.7617C116.96 59.084 119.192 60.9958 120.374 61.7641C121.617 62.5721 123.016 63.0372 124.162 63.3399L127.228 51.7382C126.55 51.5592 126.582 51.4871 126.914 51.7027C127.184 51.8785 128.96 53.1426 128.96 55.7617H116.96ZM124.07 63.315C124.499 63.4355 124.88 63.5396 125.177 63.6138L128.087 51.9721C127.968 51.9421 127.724 51.877 127.319 51.7632L124.07 63.315ZM124.98 63.5609C125.957 63.8408 126.631 64.1035 127.069 64.3165C127.529 64.54 127.56 64.6279 127.409 64.477L135.894 55.9917C133.844 53.9415 130.944 52.787 128.285 52.025L124.98 63.5609ZM127.468 64.5355C127.396 64.4646 127.321 64.3761 127.254 64.2731C127.186 64.1703 127.14 64.073 127.109 63.9928C127.048 63.8314 127.078 63.8053 127.078 64.0039H139.078C139.078 61.1403 138.173 58.2072 135.835 55.9332L127.468 64.5355ZM127.078 64.0039C127.078 64.1236 127.066 64.1849 127.063 64.2005C127.06 64.2141 127.062 64.2005 127.075 64.1728C127.088 64.1449 127.1 64.1298 127.098 64.1319C127.095 64.1355 127.065 64.1725 126.986 64.2364L134.521 73.5761C137.505 71.1689 139.078 67.8072 139.078 64.0039H127.078ZM127.01 64.2172C126.796 64.3877 126.189 64.7617 124.601 64.7617V76.7617C128.118 76.7617 131.611 75.8987 134.497 73.5953L127.01 64.2172ZM124.601 64.7617C123.335 64.7617 122.263 64.6144 121.351 64.3665L118.202 75.946C120.26 76.5054 122.403 76.7617 124.601 76.7617V64.7617ZM121.304 64.3538C120.395 64.1147 119.553 63.7524 118.759 63.26L112.435 73.4588C114.245 74.581 116.19 75.4166 118.25 75.9587L121.304 64.3538ZM137.765 41.4258L133.559 37.1464L133.541 37.1647L133.522 37.1831L137.765 41.4258ZM143.214 41.4062L138.972 45.6489L138.99 45.6677L139.009 45.6863L143.214 41.4062ZM143.195 46.875L138.952 42.6324L138.934 42.6508L138.915 42.6694L143.195 46.875ZM137.003 70H131.003V76H137.003V70ZM137.003 50.2734V44.2734H131.003V50.2734H137.003ZM143.976 50.2734H149.976V44.2734H143.976V50.2734ZM143.976 70V76H149.976V70H143.976ZM142.652 44.1211C142.652 44.3124 142.615 44.6099 142.476 44.9468C142.336 45.2843 142.15 45.5259 142.008 45.6684L133.522 37.1831C131.649 39.0567 130.652 41.4838 130.652 44.1211H142.652ZM141.971 45.7052C141.84 45.8337 141.611 46.0091 141.287 46.1422C140.962 46.2754 140.672 46.3125 140.48 46.3125V34.3125C137.845 34.3125 135.432 35.3064 133.559 37.1464L141.971 45.7052ZM140.48 46.3125C140.35 46.3125 140.085 46.2886 139.755 46.1568C139.419 46.0222 139.152 45.8294 138.972 45.6489L147.457 37.1636C145.529 35.2357 143.058 34.3125 140.48 34.3125V46.3125ZM139.009 45.6863C138.838 45.518 138.64 45.2552 138.498 44.9083C138.358 44.5661 138.328 44.2794 138.328 44.1211H150.328C150.328 41.5004 149.358 39.0315 147.419 37.1262L139.009 45.6863ZM138.328 44.1211C138.328 43.9484 138.361 43.6647 138.495 43.3376C138.631 43.009 138.812 42.7724 138.952 42.6324L147.437 51.1176C149.333 49.2223 150.328 46.7719 150.328 44.1211H138.328ZM138.915 42.6694C139.06 42.5223 139.306 42.3306 139.649 42.1873C139.991 42.0445 140.292 42.0078 140.48 42.0078V54.0078C143.142 54.0078 145.593 52.9944 147.474 51.0806L138.915 42.6694ZM140.48 42.0078C140.716 42.0078 141.039 42.0554 141.384 42.2028C141.724 42.3484 141.949 42.5328 142.063 42.6492L133.506 51.0617C135.346 52.9335 137.769 54.0078 140.48 54.0078V42.0078ZM142.063 42.6492C142.176 42.7639 142.346 42.9802 142.478 43.2993C142.611 43.6208 142.652 43.9154 142.652 44.1211H130.652C130.652 46.7866 131.674 49.1982 133.506 51.0617L142.063 42.6492ZM143.003 70V50.2734H131.003V70H143.003ZM137.003 56.2734H143.976V44.2734H137.003V56.2734ZM137.976 50.2734V70H149.976V50.2734H137.976ZM143.976 64H137.003V76H143.976V64Z" fill="white" mask="url(#path-2-outside-1_483_7)"/>
</g>
<defs>
<filter id="filter0_ddi_483_7" x="33.1748" y="0.3125" width="151.152" height="110.449" filterUnits="userSpaceOnUse" color-interpolation-filters="sRGB">
<feFlood flood-opacity="0" result="BackgroundImageFix"/>
<feColorMatrix in="SourceAlpha" type="matrix" values="0 0 0 0 0 0 0 0 0 0 0 0 0 0 0 0 0 0 127 0" result="hardAlpha"/>
<feOffset dx="-5" dy="5"/>
<feGaussianBlur stdDeviation="5"/>
<feComposite in2="hardAlpha" operator="out"/>
<feColorMatrix type="matrix" values="0 0 0 0 0 0 0 0 0 0 0 0 0 0 0 0 0 0 0.5 0"/>
<feBlend mode="normal" in2="BackgroundImageFix" result="effect1_dropShadow_483_7"/>
<feColorMatrix in="SourceAlpha" type="matrix" values="0 0 0 0 0 0 0 0 0 0 0 0 0 0 0 0 0 0 127 0" result="hardAlpha"/>
<feOffset/>
<feGaussianBlur stdDeviation="20"/>
<feComposite in2="hardAlpha" operator="out"/>
<feColorMatrix type="matrix" values="0 0 0 0 0.977083 0 0 0 0 0.924158 0 0 0 0 0.929164 0 0 0 1 0"/>
<feBlend mode="normal" in2="effect1_dropShadow_483_7" result="effect2_dropShadow_483_7"/>
<feBlend mode="normal" in="SourceGraphic" in2="effect2_dropShadow_483_7" result="shape"/>
<feColorMatrix in="SourceAlpha" type="matrix" values="0 0 0 0 0 0 0 0 0 0 0 0 0 0 0 0 0 0 127 0" result="hardAlpha"/>
<feOffset dx="10" dy="10"/>
<feGaussianBlur stdDeviation="5"/>
<feComposite in2="hardAlpha" operator="arithmetic" k2="-1" k3="1"/>
<feColorMatrix type="matrix" values="0 0 0 0 0 0 0 0 0 0 0 0 0 0 0 0 0 0 0.25 0"/>
<feBlend mode="normal" in2="shape" result="effect3_innerShadow_483_7"/>
</filter>
<linearGradient id="paint0_linear_483_7" x1="110" y1="16" x2="110" y2="94" gradientUnits="userSpaceOnUse">
<stop stop-color="#AB5295"/>
<stop offset="1" stop-color="#DF475A"/>
</linearGradient>
<linearGradient id="paint1_linear_483_7" x1="21.8388" y1="29.25" x2="77.5558" y2="132.209" gradientUnits="userSpaceOnUse">
<stop stop-color="#032D93"/>
<stop offset="1" stop-color="#A958A7"/>
</linearGradient>
</defs>
</svg>
